# xmcd CD database file
# Copyright (C) 1996 Ti Kan
#
# Track frame offsets:
#  160
#  16252
#  31537
#  44840
#  58347
#  75057
#  85502
#  102992
#  123990
#  136067
#  150957
#  164287
#  190362
#  209185
#  224132
#  253162
#  268882
#  289922
#  305895
#
# Disc length: 4439 seconds
#
# Revision: 1
# Processed by: cddbd v1.4b41PL1 Copyright (c) Steve Scherf et al.
# Submitted via: CDWizzard Release:4.12
#
DISCID=16115513
DTITLE=Louisiana Red - Midnight Rambler
DYEAR=1900
DGENRE=
TTITLE0=The Whole World
TTITLE1=Had A Date With Barbara Last Night
TTITLE2=First Degree
TTITLE3=Sweetblood Call
TTITLE4=I Was Out Walking
TTITLE5=Thirty Dirty Women
TTITLE6=King Bee
TTITLE7=Death Of Ealase
TTITLE8=Who Been Fooling You
TTITLE9=Going Home
TTITLE10=Too Poor To Die
TTITLE11=Standing At Your Door
TTITLE12=I Been Down So Long
TTITLE13=Turkey Killer
TTITLE14=Walk All Over Georgia
TTITLE15=Look At The Children Run
TTITLE16=Recreation Blues
TTITLE17=Midnight Rambler
TTITLE18=When My Mama Was Living
EXTD=
EXTT0=
EXTT1=
EXTT2=
EXTT3=
EXTT4=
EXTT5=
EXTT6=
EXTT7=
EXTT8=
EXTT9=
EXTT10=
EXTT11=
EXTT12=
EXTT13=
EXTT14=
EXTT15=
EXTT16=
EXTT17=
EXTT18=
PLAYORDER=
